<svg width="16" height="16" viewBox="0 0 16 16" fill="none" xmlns="http://www.w3.org/2000/svg">
<g id="restaurant 1" clip-path="url(#clip0_2_29)">
<g id="Group">
<g id="Group_2">
<path id="Vector" d="M15.5837 13.6039L9.30981 7.33L1.97981 0H1.40697L1.29 0.297219C0.981278 1.08172 0.849372 1.88409 0.90859 2.6175C0.97609 3.4535 1.29368 4.17728 1.82709 4.71069L7.54928 10.4329L8.30403 9.67813L13.5942 15.5935C14.1204 16.1198 15.0262 16.151 15.5837 15.5935C16.1323 15.045 16.1323 14.1525 15.5837 13.6039Z" fill="#FE4A51"/>
</g>
</g>
<g id="Group_3">
<g id="Group_4">
<path id="Vector_2" d="M4.89773 9.10767L0.416136 13.5893C-0.132364 14.1378 -0.132364 15.0303 0.416136 15.5788C0.937198 16.0999 1.8386 16.1459 2.40567 15.5788L6.88729 11.0972L4.89773 9.10767Z" fill="#FE4A51"/>
</g>
</g>
<g id="Group_5">
<g id="Group_6">
<path id="Vector_3" d="M15.3204 2.66398L12.7782 5.20617L12.115 4.54298L14.6572 2.00076L13.994 1.33757L11.4518 3.87976L10.7886 3.21657L13.3308 0.674387L12.6677 0.0112305L9.35173 3.32717C8.94608 3.73282 8.70386 4.27145 8.66961 4.84389C8.66095 4.98892 8.62808 5.13157 8.57355 5.26726L10.7276 7.42129C10.8633 7.3667 11.006 7.33385 11.151 7.3252C11.7234 7.29104 12.262 7.04876 12.6677 6.6431L15.9836 3.3272L15.3204 2.66398Z" fill="#FE4A51"/>
</g>
</g>
</g>
<defs>
<clipPath id="clip0_2_29">
<rect width="16" height="16" fill="white"/>
</clipPath>
</defs>
</svg>
