<svg width="12" height="12" viewBox="0 0 12 12" fill="none" xmlns="http://www.w3.org/2000/svg">
<g id="restaurant 1" clip-path="url(#clip0_2_63)">
<g id="Group">
<g id="Group_2">
<path id="Vector" d="M11.6878 10.203L6.98236 5.4975L1.48486 0H1.05522L0.967498 0.222914C0.735959 0.811289 0.637029 1.41307 0.681443 1.96312C0.732068 2.59013 0.970263 3.13296 1.37032 3.53302L5.66196 7.82466L6.22802 7.25859L10.1956 11.6951C10.5903 12.0898 11.2697 12.1133 11.6878 11.6951C12.0992 11.2837 12.0992 10.6144 11.6878 10.203Z" fill="#FE4A51"/>
</g>
</g>
<g id="Group_3">
<g id="Group_4">
<path id="Vector_2" d="M3.67333 6.83069L0.312132 10.1919C-0.0992427 10.6033 -0.0992427 11.2727 0.312132 11.684C0.702929 12.0748 1.37898 12.1093 1.80428 11.684L5.1655 8.32281L3.67333 6.83069Z" fill="#FE4A51"/>
</g>
</g>
<g id="Group_5">
<g id="Group_6">
<path id="Vector_3" d="M11.4903 1.99805L9.58364 3.90469L9.08623 3.4073L10.9929 1.50063L10.4955 1.00324L8.58886 2.90988L8.09147 2.41249L9.99814 0.505851L9.50077 0.00848389L7.01382 2.49544C6.70957 2.79968 6.52791 3.20365 6.50222 3.63298C6.49573 3.74175 6.47107 3.84874 6.43018 3.95051L8.0457 5.56603C8.14746 5.52508 8.25448 5.50045 8.36323 5.49396C8.79256 5.46834 9.19653 5.28663 9.50077 4.98239L11.9877 2.49546L11.4903 1.99805Z" fill="#FE4A51"/>
</g>
</g>
</g>
<defs>
<clipPath id="clip0_2_63">
<rect width="12" height="12" fill="white"/>
</clipPath>
</defs>
</svg>
