<svg width="13" height="12" viewBox="0 0 13 12" fill="none" xmlns="http://www.w3.org/2000/svg">
<g id="restaurant 1" clip-path="url(#clip0_2_141)">
<g id="Group">
<g id="Group_2">
<path id="Vector" d="M11.9952 10.203L7.16596 5.4975L1.52379 0H1.08285L0.992815 0.222914C0.755183 0.811289 0.65365 1.41307 0.699233 1.96312C0.75119 2.59013 0.995653 3.13296 1.40624 3.53302L5.81081 7.82466L6.39177 7.25859L10.4638 11.6951C10.8689 12.0898 11.5661 12.1133 11.9952 11.6951C12.4175 11.2837 12.4175 10.6144 11.9952 10.203Z" fill="#FE4A51"/>
</g>
</g>
<g id="Group_3">
<g id="Group_4">
<path id="Vector_2" d="M3.76978 6.8307L0.320129 10.1919C-0.102071 10.6033 -0.102071 11.2727 0.320129 11.684C0.72121 12.0748 1.41506 12.1093 1.85154 11.684L5.30122 8.32282L3.76978 6.8307Z" fill="#FE4A51"/>
</g>
</g>
<g id="Group_5">
<g id="Group_6">
<path id="Vector_3" d="M11.7925 1.99805L9.8357 3.90469L9.32519 3.4073L11.282 1.50063L10.7716 1.00324L8.81474 2.90988L8.30426 2.41249L10.2611 0.505851L9.75064 0.00848389L7.19824 2.49544C6.88599 2.79968 6.69955 3.20365 6.67319 3.63298C6.66652 3.74175 6.64122 3.84874 6.59924 3.95051L8.25728 5.56603C8.36172 5.52508 8.47155 5.50045 8.58317 5.49396C9.02379 5.46834 9.43839 5.28663 9.75064 4.98239L12.303 2.49546L11.7925 1.99805Z" fill="#FE4A51"/>
</g>
</g>
</g>
<defs>
<clipPath id="clip0_2_141">
<rect width="12.3158" height="12" fill="white"/>
</clipPath>
</defs>
</svg>
